<svg width="1200" height="1600" viewBox="0 0 1200 1600" fill="none" xmlns="http://www.w3.org/2000/svg">
  <defs>
    <linearGradient id="bg" x1="0" y1="0" x2="1200" y2="1600" gradientUnits="userSpaceOnUse">
      <stop stop-color="#0A0A0A"/>
      <stop offset="1" stop-color="#1B1B1B"/>
    </linearGradient>
    <linearGradient id="glow" x1="320" y1="340" x2="900" y2="1240" gradientUnits="userSpaceOnUse">
      <stop stop-color="#D8D8D8"/>
      <stop offset="0.6" stop-color="#7A7A7A"/>
      <stop offset="1" stop-color="#1F1F1F"/>
    </linearGradient>
    <filter id="blur" x="-50%" y="-50%" width="200%" height="200%">
      <feGaussianBlur stdDeviation="28"/>
    </filter>
  </defs>
  <rect width="1200" height="1600" fill="url(#bg)"/>
  <circle cx="600" cy="800" r="430" fill="#FFFFFF" fill-opacity="0.045" filter="url(#blur)"/>
  <path d="M240 430L960 430" stroke="#F2F2F2" stroke-opacity="0.2" stroke-width="2"/>
  <path d="M240 1170L960 1170" stroke="#F2F2F2" stroke-opacity="0.2" stroke-width="2"/>
  <rect x="260" y="350" width="680" height="900" rx="64" fill="#0F0F0F" stroke="#FFFFFF" stroke-opacity="0.08" stroke-width="2"/>
  <g filter="url(#blur)">
    <ellipse cx="600" cy="780" rx="210" ry="470" fill="url(#glow)" fill-opacity="0.45"/>
  </g>
  <g opacity="0.9">
    <path d="M380 560C472 500 548 474 624 484C710 495 760 560 826 606" stroke="#E8E8E8" stroke-opacity="0.7" stroke-width="16" stroke-linecap="round"/>
    <path d="M384 772C466 726 552 708 636 718C712 728 772 784 834 818" stroke="#A9A9A9" stroke-opacity="0.6" stroke-width="12" stroke-linecap="round"/>
    <path d="M382 988C470 936 552 914 628 926C708 938 766 992 826 1034" stroke="#6F6F6F" stroke-opacity="0.54" stroke-width="12" stroke-linecap="round"/>
  </g>
  <g opacity="0.85">
    <rect x="320" y="286" width="560" height="42" fill="#FFFFFF" fill-opacity="0.06"/>
    <rect x="320" y="1270" width="560" height="42" fill="#FFFFFF" fill-opacity="0.06"/>
  </g>
  <text x="82" y="1500" fill="#F0F0F0" fill-opacity="0.6" font-family="Arial, sans-serif" font-size="72" letter-spacing="10">MONO_STASIS</text>
</svg>
