<svg width="1200" height="1600" viewBox="0 0 1200 1600" fill="none" xmlns="http://www.w3.org/2000/svg">
  <defs>
    <linearGradient id="bg" x1="0" y1="0" x2="1200" y2="1600" gradientUnits="userSpaceOnUse">
      <stop stop-color="#050611"/>
      <stop offset="0.5" stop-color="#15123A"/>
      <stop offset="1" stop-color="#2B0E2F"/>
    </linearGradient>
    <radialGradient id="orb" cx="0" cy="0" r="1" gradientUnits="userSpaceOnUse" gradientTransform="translate(600 780) rotate(90) scale(470 470)">
      <stop stop-color="#9E78FF" stop-opacity="0.9"/>
      <stop offset="0.45" stop-color="#5EE1FF" stop-opacity="0.5"/>
      <stop offset="1" stop-color="#000000" stop-opacity="0"/>
    </radialGradient>
    <filter id="blur" x="-50%" y="-50%" width="200%" height="200%">
      <feGaussianBlur stdDeviation="24"/>
    </filter>
  </defs>
  <rect width="1200" height="1600" fill="url(#bg)"/>
  <circle cx="600" cy="780" r="470" fill="url(#orb)"/>
  <circle cx="344" cy="330" r="160" fill="#5EE1FF" fill-opacity="0.12" filter="url(#blur)"/>
  <circle cx="904" cy="1200" r="220" fill="#FF6BDA" fill-opacity="0.12" filter="url(#blur)"/>
  <g opacity="0.9">
    <path d="M160 650C280 610 360 580 456 620C546 657 600 755 692 794C794 838 908 816 1040 738" stroke="#8D7BFF" stroke-width="22" stroke-linecap="round"/>
    <path d="M136 860C260 810 352 786 448 828C540 868 602 962 692 1000C798 1044 910 1030 1060 948" stroke="#5EE1FF" stroke-width="14" stroke-linecap="round" stroke-opacity="0.9"/>
    <path d="M184 1090C300 1050 390 1030 478 1058C570 1088 626 1176 716 1218C818 1267 920 1252 1010 1190" stroke="#FF6BDA" stroke-width="10" stroke-linecap="round" stroke-opacity="0.7"/>
  </g>
  <g opacity="0.9">
    <rect x="258" y="258" width="684" height="984" rx="58" stroke="#FFFFFF" stroke-opacity="0.1" stroke-width="2"/>
    <rect x="300" y="300" width="600" height="900" rx="40" stroke="#FFFFFF" stroke-opacity="0.06" stroke-width="2"/>
  </g>
  <text x="76" y="1500" fill="#F7E9FF" fill-opacity="0.65" font-family="Arial, sans-serif" font-size="72" letter-spacing="10">VOID_SIGNAL</text>
</svg>
